<svg width="20" height="20" viewBox="0 0 20 20" fill="none" xmlns="http://www.w3.org/2000/svg">
<g id="copy-paste--clipboard-copy-cut-paste">
<path id="Vector" d="M12.1428 5V3.57142C12.1428 3.19254 11.9923 2.82918 11.7244 2.56127C11.4565 2.29337 11.0931 2.14285 10.7142 2.14285H9.28564" stroke="#5C5F6A" stroke-width="1.42857" stroke-linecap="round" stroke-linejoin="round"/>
<path id="Vector_2" d="M5.71423 15H2.1428C1.76392 15 1.40056 14.8494 1.13265 14.5816C0.864743 14.3137 0.714233 13.9503 0.714233 13.5714V3.57142C0.714233 3.19254 0.864743 2.82918 1.13265 2.56127C1.40056 2.29337 1.76392 2.14285 2.1428 2.14285H3.57138" stroke="#5C5F6A" stroke-width="1.42857" stroke-linecap="round" stroke-linejoin="round"/>
<path id="Vector_3" d="M17.8571 7.85713H10.7142C9.92524 7.85713 9.28564 8.49673 9.28564 9.2857V17.8571C9.28564 18.6461 9.92524 19.2857 10.7142 19.2857H17.8571C18.6461 19.2857 19.2856 18.6461 19.2856 17.8571V9.2857C19.2856 8.49673 18.6461 7.85713 17.8571 7.85713Z" stroke="#5C5F6A" stroke-width="1.42857" stroke-linecap="round" stroke-linejoin="round"/>
<path id="Vector_4" d="M9.64281 0.714279H3.21423L3.79995 3.02856C3.83563 3.18346 3.92296 3.32161 4.04759 3.42026C4.17222 3.51892 4.32671 3.57224 4.48566 3.57142H8.37138C8.53033 3.57224 8.68482 3.51892 8.80945 3.42026C8.93408 3.32161 9.02141 3.18346 9.05709 3.02856L9.64281 0.714279Z" stroke="#5C5F6A" stroke-width="1.42857" stroke-linecap="round" stroke-linejoin="round"/>
<path id="Vector_5" d="M12.1428 12.1429H16.4285" stroke="#5C5F6A" stroke-width="1.42857" stroke-linecap="round" stroke-linejoin="round"/>
<path id="Vector_6" d="M12.1428 15H16.4285" stroke="#5C5F6A" stroke-width="1.42857" stroke-linecap="round" stroke-linejoin="round"/>
</g>
</svg>
