<svg width="20" height="16" viewBox="0 0 20 16" fill="none" xmlns="http://www.w3.org/2000/svg">
<path id="Vector" d="M13.0853 11.844V2.39276C13.0853 2.02338 12.9347 1.66912 12.6667 1.40793C12.3987 1.14674 12.0352 1 11.6562 1H2.42903C2.05002 1 1.68655 1.14674 1.41855 1.40793C1.15056 1.66912 1 2.02338 1 2.39276V11.6212C1 11.9906 1.15056 12.3448 1.41855 12.606C1.68655 12.8672 2.05002 13.0139 2.42903 13.0139H3.50079M19 7.59192H13.0867M17.0765 12.7535H17.5695C17.9485 12.7535 18.312 12.6067 18.58 12.3456C18.848 12.0844 18.9986 11.7301 18.9986 11.3607V7.18245L17.0079 3.20891C16.8903 2.97493 16.7077 2.77781 16.4808 2.63993C16.254 2.50206 15.992 2.42897 15.7247 2.42897H13.3425M12.2536 13.0139H8.05653M3.57225 13.0557C3.57225 13.5714 3.78242 14.0659 4.15654 14.4305C4.53066 14.7952 5.03808 15 5.56716 15C6.09625 15 6.60366 14.7952 6.97778 14.4305C7.3519 14.0659 7.56208 13.5714 7.56208 13.0557C7.56208 12.5401 7.3519 12.0455 6.97778 11.6809C6.60366 11.3163 6.09625 11.1114 5.56716 11.1114C5.03808 11.1114 4.53066 11.3163 4.15654 11.6809C3.78242 12.0455 3.57225 12.5401 3.57225 13.0557ZM12.628 13.0557C12.628 13.5714 12.8382 14.0659 13.2123 14.4305C13.5864 14.7952 14.0938 15 14.6229 15C15.152 15 15.6594 14.7952 16.0335 14.4305C16.4076 14.0659 16.6178 13.5714 16.6178 13.0557C16.6178 12.5401 16.4076 12.0455 16.0335 11.6809C15.6594 11.3163 15.152 11.1114 14.6229 11.1114C14.0938 11.1114 13.5864 11.3163 13.2123 11.6809C12.8382 12.0455 12.628 12.5401 12.628 13.0557Z" stroke="#5C5F6A" stroke-width="1.43" stroke-linecap="round" stroke-linejoin="round"/>
</svg>
