<svg width="18" height="18" viewBox="0 0 18 18" fill="none" xmlns="http://www.w3.org/2000/svg">
<g id="Vector">
<path fill-rule="evenodd" clip-rule="evenodd" d="M2.63604 2.63604C4.32387 0.948212 6.61305 0 9 0C11.3869 0 13.6761 0.948212 15.364 2.63604C17.0518 4.32387 18 6.61305 18 9C18 11.3869 17.0518 13.6761 15.364 15.364C13.6761 17.0518 11.3869 18 9 18C6.61305 18 4.32387 17.0518 2.63604 15.364C0.948212 13.6761 0 11.3869 0 9C0 6.61305 0.948212 4.32387 2.63604 2.63604ZM9 1.5602C7.02684 1.5602 5.1345 2.34403 3.73927 3.73927C2.34403 5.1345 1.5602 7.02684 1.5602 9C1.5602 10.9732 2.34403 12.8655 3.73927 14.2607C5.1345 15.656 7.02684 16.4398 9 16.4398C10.9732 16.4398 12.8655 15.656 14.2607 14.2607C15.656 12.8655 16.4398 10.9732 16.4398 9C16.4398 7.02684 15.656 5.1345 14.2607 3.73927C12.8655 2.34403 10.9732 1.5602 9 1.5602Z" fill="#5C5F6A"/>
<path fill-rule="evenodd" clip-rule="evenodd" d="M9.7801 7.5876V13.5739H8.2199V7.5876H9.7801Z" fill="#5C5F6A"/>
<path fill-rule="evenodd" clip-rule="evenodd" d="M9.71338 5.2062C9.75627 5.10956 9.7801 5.00259 9.7801 4.89005C9.7801 4.45921 9.43084 4.10995 9 4.10995C8.70926 4.10995 8.43042 4.22545 8.22483 4.43103C8.01925 4.63662 7.90375 4.91546 7.90375 5.2062C7.90375 5.49694 8.01925 5.77578 8.22483 5.98137C8.43042 6.18695 8.70926 6.30245 9 6.30245C9.43084 6.30245 9.7801 5.95319 9.7801 5.52235C9.7801 5.40981 9.75627 5.30284 9.71338 5.2062Z" fill="#5C5F6A"/>
<path fill-rule="evenodd" clip-rule="evenodd" d="M8.2199 4.89005C8.2199 4.45921 8.56916 4.10995 9 4.10995C9.29074 4.10995 9.56958 4.22545 9.77517 4.43103C9.98075 4.63662 10.0962 4.91546 10.0962 5.2062C10.0962 5.49694 9.98075 5.77578 9.77517 5.98137C9.56958 6.18695 9.29074 6.30245 9 6.30245C8.56916 6.30245 8.2199 5.95319 8.2199 5.52235C8.2199 5.40981 8.24373 5.30284 8.28662 5.2062C8.24373 5.10956 8.2199 5.00259 8.2199 4.89005Z" fill="#5C5F6A"/>
</g>
</svg>
