<svg width="20" height="18" viewBox="0 0 20 18" fill="none" xmlns="http://www.w3.org/2000/svg">
<g id="group">
<path id="Vector (Stroke)" fill-rule="evenodd" clip-rule="evenodd" d="M15.9235 0.637768C16.2025 0.358822 16.6547 0.358822 16.9337 0.637768L19.7908 3.49491C20.0698 3.77386 20.0698 4.22612 19.7908 4.50506C19.5119 4.78401 19.0596 4.78401 18.7807 4.50506L16.4286 2.153L8.53369 10.0479C8.25475 10.3269 7.80249 10.3269 7.52354 10.0479C7.24459 9.76897 7.24459 9.31671 7.52354 9.03777L15.9235 0.637768Z" fill="#5C5F6A"/>
<path id="Vector_2 (Stroke)" fill-rule="evenodd" clip-rule="evenodd" d="M12.7092 3.85206C12.9882 3.57312 13.4404 3.57312 13.7194 3.85206L16.2194 6.35206C16.4983 6.63101 16.4983 7.08327 16.2194 7.36221C15.9404 7.64116 15.4882 7.64116 15.2092 7.36221L12.7092 4.86221C12.4303 4.58327 12.4303 4.13101 12.7092 3.85206Z" fill="#5C5F6A"/>
<path id="Vector_3 (Stroke)" fill-rule="evenodd" clip-rule="evenodd" d="M0 12.5714C0 9.80999 2.23858 7.57141 5 7.57141C7.76142 7.57141 10 9.80999 10 12.5714C10 15.3329 7.76141 17.5714 5 17.5714C2.23859 17.5714 0 15.3329 0 12.5714ZM5 8.99998C3.02756 8.99998 1.42857 10.599 1.42857 12.5714C1.42857 14.5439 3.02755 16.1428 5 16.1428C6.97245 16.1428 8.57143 14.5439 8.57143 12.5714C8.57143 10.599 6.97244 8.99998 5 8.99998Z" fill="#5C5F6A"/>
</g>
</svg>
