<svg width="16" height="26" viewBox="0 0 16 26" fill="none" xmlns="http://www.w3.org/2000/svg">
<path d="M12.4768 4.34856L6.2039 0.555104C5.61183 0.192934 4.93872 0.00151382 4.25307 0.000320435C2.20933 0.000320435 0.33463 1.71226 0.33463 4.10504V18.3073L12.4768 10.9669C14.9081 9.49467 14.9081 5.81998 12.4768 4.34856ZM3.84825 11.448V3.86794L10.1162 7.65668L3.84825 11.448Z" fill="#0E1422"/>
<path d="M15.8488 25.9845C15.8488 26.0273 3.99069 25.966 3.99069 25.966L2.94324 25.8426C1.2466 25.644 -0.0558684 24.1233 0.00184602 22.3346C0.00184602 22.2918 0.00552992 22.2519 0.00798585 22.2103C0.0545855 21.4365 0.325954 20.6961 0.785698 20.0885C0.972404 19.8461 1.20079 19.6426 1.45903 19.4883L10.478 14.0725C12.3413 12.9535 13.893 12.562 14.6998 10.5341C14.9973 9.77569 15.1258 8.95619 15.0756 8.13792L15.0444 7.58656L15.965 12.9205C16.0829 13.8264 15.9012 14.7537 15.421 15.5169C15.1325 15.9785 14.7474 16.3653 14.295 16.6479L3.82942 21.8943C3.81896 21.9006 3.80885 21.9075 3.79913 21.9149C3.5126 22.1293 3.68943 22.6069 4.04022 22.5867L12.7514 22.6403C14.4431 22.5417 15.8524 24.2112 15.8488 25.9845Z" fill="#0E1422"/>
</svg>
