<svg width="16" height="4" viewBox="0 0 16 4" fill="none" xmlns="http://www.w3.org/2000/svg">
<g id="Vector">
<path d="M2.14284 2.57142C1.82725 2.57142 1.57141 2.31558 1.57141 1.99999C1.57141 1.6844 1.82725 1.42856 2.14284 1.42856" stroke="#5C5F6A" stroke-width="1.8" stroke-linecap="round" stroke-linejoin="round"/>
<path d="M2.14284 2.57142C2.45843 2.57142 2.71427 2.31558 2.71427 1.99999C2.71427 1.6844 2.45843 1.42856 2.14284 1.42856" stroke="#5C5F6A" stroke-width="1.8" stroke-linecap="round" stroke-linejoin="round"/>
<path d="M7.99998 2.57142C7.68439 2.57142 7.42855 2.31558 7.42855 1.99999C7.42855 1.6844 7.68439 1.42856 7.99998 1.42856" stroke="#5C5F6A" stroke-width="1.8" stroke-linecap="round" stroke-linejoin="round"/>
<path d="M7.99998 2.57142C8.31557 2.57142 8.57141 2.31558 8.57141 1.99999C8.57141 1.6844 8.31557 1.42856 7.99998 1.42856" stroke="#5C5F6A" stroke-width="1.8" stroke-linecap="round" stroke-linejoin="round"/>
<path d="M13.8571 2.57142C13.5415 2.57142 13.2856 2.31558 13.2856 1.99999C13.2856 1.6844 13.5415 1.42856 13.8571 1.42856" stroke="#5C5F6A" stroke-width="1.8" stroke-linecap="round" stroke-linejoin="round"/>
<path d="M13.8571 2.57142C14.1727 2.57142 14.4285 2.31558 14.4285 1.99999C14.4285 1.6844 14.1727 1.42856 13.8571 1.42856" stroke="#5C5F6A" stroke-width="1.8" stroke-linecap="round" stroke-linejoin="round"/>
</g>
</svg>
