<svg width="18" height="16" viewBox="0 0 18 16" fill="none" xmlns="http://www.w3.org/2000/svg">
<path id="Vector" d="M2.23077 5.66667H15.7692M2.23077 5.66667V13.8333C2.23077 14.1427 2.36044 14.4395 2.59125 14.6583C2.82207 14.877 3.13511 15 3.46154 15H14.5385C14.8649 15 15.178 14.877 15.4087 14.6583C15.6395 14.4395 15.7692 14.1427 15.7692 13.8333V5.66667M2.23077 5.66667C1.55103 5.66667 1 5.14433 1 4.5V2.16667C1 1.52234 1.55103 1 2.23077 1H15.7692C16.449 1 17 1.52234 17 2.16667V4.5C17 5.14433 16.449 5.66667 15.7692 5.66667M7.15385 9.16667H10.8462" stroke="#5C5F6A" stroke-width="1.42857" stroke-linecap="round" stroke-linejoin="round"/>
</svg>
