<svg width="18" height="20" viewBox="0 0 18 20" fill="none" xmlns="http://www.w3.org/2000/svg">
<path id="Vector" d="M5.96889 11.359L12.04 14.941M12.0311 5.059L5.96889 8.641M17 3.7C17 5.19117 15.8061 6.4 14.3333 6.4C12.8606 6.4 11.6667 5.19117 11.6667 3.7C11.6667 2.20883 12.8606 1 14.3333 1C15.8061 1 17 2.20883 17 3.7ZM6.33333 10C6.33333 11.4912 5.13943 12.7 3.66667 12.7C2.19391 12.7 1 11.4912 1 10C1 8.50883 2.19391 7.3 3.66667 7.3C5.13943 7.3 6.33333 8.50883 6.33333 10ZM17 16.3C17 17.7912 15.8061 19 14.3333 19C12.8606 19 11.6667 17.7912 11.6667 16.3C11.6667 14.8088 12.8606 13.6 14.3333 13.6C15.8061 13.6 17 14.8088 17 16.3Z" stroke="#5C5F6A" stroke-width="1.43" stroke-linecap="round" stroke-linejoin="round"/>
</svg>
