<svg width="20" height="18" viewBox="0 0 20 18" fill="none" xmlns="http://www.w3.org/2000/svg">
<g id="Shopping Cart Add" clip-path="url(#clip0_1005_413)">
<g id="shopping-cart-add--shopping-cart-checkout-add-plus-new">
<path id="Vector" d="M15.3553 17.3571C15.1754 17.3571 15.0028 17.2894 14.8755 17.1688C14.7482 17.0483 14.6768 16.8848 14.6768 16.7143C14.6768 16.5438 14.7482 16.3803 14.8755 16.2597C15.0028 16.1391 15.1754 16.0714 15.3553 16.0714C15.5353 16.0714 15.7079 16.1391 15.8352 16.2597C15.9624 16.3803 16.0339 16.5438 16.0339 16.7143C16.0339 16.8848 15.9624 17.0483 15.8352 17.1688C15.7079 17.2894 15.5353 17.3571 15.3553 17.3571Z" stroke="#5C5F6A" stroke-width="1.42857" stroke-linecap="round" stroke-linejoin="round"/>
<path id="Vector_2" d="M6.53392 17.3571C6.35395 17.3571 6.18135 17.2894 6.0541 17.1688C5.92684 17.0483 5.85535 16.8848 5.85535 16.7143C5.85535 16.5438 5.92684 16.3803 6.0541 16.2597C6.18135 16.1391 6.35395 16.0714 6.53392 16.0714C6.71389 16.0714 6.88648 16.1391 7.01374 16.2597C7.141 16.3803 7.21249 16.5438 7.21249 16.7143C7.21249 16.8848 7.141 17.0483 7.01374 17.1688C6.88648 17.2894 6.71389 17.3571 6.53392 17.3571Z" stroke="#5C5F6A" stroke-width="1.42857" stroke-linecap="round" stroke-linejoin="round"/>
<path id="Vector_3" d="M13.5341 8.35715H9.46265" stroke="#5C5F6A" stroke-width="1.42857" stroke-linecap="round" stroke-linejoin="round"/>
<path id="Vector_4" d="M11.4983 6.42856V10.2857" stroke="#5C5F6A" stroke-width="1.42857" stroke-linecap="round" stroke-linejoin="round"/>
<path id="Vector 2498" d="M1.17859 0.642853H4.57145L4.92837 3.85714M4.92837 3.85714L5.80102 11.7064C5.83621 12.0222 5.99349 12.3144 6.24255 12.5269C6.49162 12.7394 6.81486 12.857 7.15002 12.8571H15.7272C16.0297 12.8571 16.3236 12.7613 16.5621 12.585C16.8006 12.4087 16.9701 12.1619 17.0436 11.8839L18.74 5.45528C18.7901 5.2657 18.794 5.06779 18.7513 4.87659C18.7086 4.6854 18.6204 4.50594 18.4935 4.35186C18.3666 4.19779 18.2042 4.07315 18.0188 3.98743C17.8335 3.9017 17.6299 3.85714 17.4236 3.85714H4.92837Z" stroke="#5C5F6A" stroke-width="1.42857" stroke-linecap="round" stroke-linejoin="round"/>
</g>
</g>
<defs>
<clipPath id="clip0_1005_413">
<rect width="19" height="18" fill="white" transform="translate(0.5)"/>
</clipPath>
</defs>
</svg>
