<svg width="18" height="18" viewBox="0 0 18 18" fill="none" xmlns="http://www.w3.org/2000/svg">
<path id="Vector" d="M4.80764 16.7857H2.41204C2.09435 16.7857 1.78969 16.6595 1.56506 16.4349C1.34043 16.2103 1.21423 15.9056 1.21423 15.5879V6.00551M1.21423 6.00551H16.7857M1.21423 6.00551L3.86138 1.8132C3.96381 1.63561 4.11011 1.48728 4.28628 1.38242C4.46246 1.27756 4.66259 1.21967 4.86753 1.21429H13.1324C13.3373 1.21967 13.5375 1.27756 13.7137 1.38242C13.8897 1.48728 14.0361 1.63561 14.1385 1.8132L16.7857 6.00551M16.7857 6.00551V15.5879C16.7857 15.9056 16.6594 16.2103 16.4348 16.4349C16.2102 16.6595 15.9055 16.7857 15.5879 16.7857H13.1923M6.0054 12.5934L8.9999 9.59891M8.9999 9.59891L11.9944 12.5934M8.9999 9.59891L8.99999 16.7857M8.99999 1.21429V6.0055" stroke="#5C5F6A" stroke-width="1.42857" stroke-linecap="round" stroke-linejoin="round"/>
</svg>
