<svg width="20" height="20" viewBox="0 0 20 20" fill="none" xmlns="http://www.w3.org/2000/svg">
<g id="Vector">
<path fill-rule="evenodd" clip-rule="evenodd" d="M7.11604 5.08299C7.88092 4.31812 8.91831 3.88842 10 3.88842C11.0817 3.88842 12.1191 4.31812 12.884 5.08299C13.6488 5.84787 14.0785 6.88525 14.0785 7.96695C14.0785 9.04864 13.6488 10.086 12.884 10.8509C12.1191 11.6158 11.0817 12.0455 10 12.0455C8.91831 12.0455 7.88092 11.6158 7.11604 10.8509C6.35117 10.086 5.92147 9.04864 5.92147 7.96695C5.92147 6.88525 6.35117 5.84787 7.11604 5.08299ZM10 5.26864C9.28436 5.26864 8.59804 5.55292 8.09201 6.05895C7.58597 6.56498 7.30169 7.25131 7.30169 7.96695C7.30169 8.68258 7.58597 9.36891 8.09201 9.87494C8.59804 10.381 9.28436 10.6653 10 10.6653C10.7156 10.6653 11.402 10.381 11.908 9.87494C12.414 9.36891 12.6983 8.68258 12.6983 7.96695C12.6983 7.25131 12.414 6.56498 11.908 6.05895C11.402 5.55292 10.7156 5.26864 10 5.26864Z" fill="#5C5F6A"/>
<path fill-rule="evenodd" clip-rule="evenodd" d="M10 14.0804C8.95587 14.0804 7.9293 14.349 7.01897 14.8603C6.10864 15.3717 5.34516 16.1087 4.80193 17.0003C4.60364 17.3258 4.17902 17.4289 3.85353 17.2307C3.52804 17.0324 3.42493 16.6077 3.62323 16.2823C4.28964 15.1884 5.22624 14.2843 6.343 13.657C7.45975 13.0297 8.71911 12.7002 10 12.7002C11.2809 12.7002 12.5402 13.0297 13.657 13.657C14.7738 14.2843 15.7104 15.1884 16.3768 16.2823C16.5751 16.6077 16.472 17.0324 16.1465 17.2307C15.821 17.4289 15.3964 17.3258 15.1981 17.0003C14.6548 16.1087 13.8914 15.3717 12.981 14.8603C12.0707 14.349 11.0441 14.0804 10 14.0804Z" fill="#5C5F6A"/>
<path fill-rule="evenodd" clip-rule="evenodd" d="M3.28249 3.28249C5.06408 1.50089 7.48044 0.5 10 0.5C12.5196 0.5 14.9359 1.50089 16.7175 3.28249C18.4991 5.06408 19.5 7.48044 19.5 10C19.5 12.5196 18.4991 14.9359 16.7175 16.7175C14.9359 18.4991 12.5196 19.5 10 19.5C7.48044 19.5 5.06408 18.4991 3.28249 16.7175C1.50089 14.9359 0.5 12.5196 0.5 10C0.5 7.48044 1.50089 5.06408 3.28249 3.28249ZM10 1.88022C7.8465 1.88022 5.7812 2.73569 4.25845 4.25845C2.73569 5.7812 1.88022 7.8465 1.88022 10C1.88022 12.1535 2.73569 14.2188 4.25845 15.7416C5.7812 17.2643 7.8465 18.1198 10 18.1198C12.1535 18.1198 14.2188 17.2643 15.7416 15.7416C17.2643 14.2188 18.1198 12.1535 18.1198 10C18.1198 7.8465 17.2643 5.7812 15.7416 4.25845C14.2188 2.73569 12.1535 1.88022 10 1.88022Z" fill="#5C5F6A"/>
</g>
</svg>
